<svg xmlns="http://www.w3.org/2000/svg" viewBox="0 0 32 32" fill="none">
  <rect width="32" height="32" rx="6" fill="#061428"/>
  <g stroke="#c9a962" stroke-width="1.1" stroke-linecap="round" stroke-linejoin="round" fill="none">
    <line x1="16" y1="7" x2="16" y2="21"/>
    <line x1="9" y1="10" x2="23" y2="10"/>
    <line x1="9" y1="10" x2="8" y2="14"/>
    <line x1="9" y1="10" x2="9" y2="14"/>
    <line x1="9" y1="10" x2="10" y2="14"/>
    <path d="M6 14 C6 16.5, 7.5 18, 9 18 C10.5 18, 12 16.5, 12 14"/>
    <line x1="23" y1="10" x2="22" y2="14"/>
    <line x1="23" y1="10" x2="23" y2="14"/>
    <line x1="23" y1="10" x2="24" y2="14"/>
    <path d="M20 14 C20 16.5, 21.5 18, 23 18 C24.5 18, 26 16.5, 26 14"/>
    <path d="M14 21 H18"/>
  </g>
</svg>
