<svg xmlns="http://www.w3.org/2000/svg" viewBox="0 0 144 144" fill="none" role="img" aria-label="PS Viswanathan Advocate logo">
  <rect width="144" height="144" rx="20" fill="#061428"/>
  <circle cx="72" cy="72" r="58" stroke="#c9a962" stroke-width="1.4" fill="none"/>
  <circle cx="72" cy="72" r="52" stroke="#c9a962" stroke-width="0.7" fill="none" opacity="0.75"/>
  <g stroke="#c9a962" stroke-width="1.6" stroke-linecap="round" stroke-linejoin="round" fill="none">
    <line x1="72" y1="28" x2="72" y2="92"/>
    <path d="M66 92 H78"/>
    <path d="M64 96 H80"/>
    <path d="M62 100 H82"/>
    <line x1="38" y1="36" x2="106" y2="36"/>
    <line x1="38" y1="36" x2="34" y2="50"/>
    <line x1="38" y1="36" x2="38" y2="50"/>
    <line x1="38" y1="36" x2="42" y2="50"/>
    <path d="M28 50 C28 58, 32 62, 38 62 C44 62, 48 58, 48 50"/>
    <line x1="106" y1="36" x2="102" y2="50"/>
    <line x1="106" y1="36" x2="106" y2="50"/>
    <line x1="106" y1="36" x2="110" y2="50"/>
    <path d="M96 50 C96 58, 100 62, 106 62 C112 62, 116 58, 116 50"/>
  </g>
</svg>
